<?xml version="1.0" encoding="UTF-8"?>
<svg version="1.1" xmlns="http://www.w3.org/2000/svg" width="318" height="300">
<path d="M0 0 C0.87974487 -0.0049649 1.75948975 -0.00992981 2.66589355 -0.01504517 C5.54794126 -0.02952624 8.42993375 -0.03644898 11.31201172 -0.04199219 C12.30994625 -0.04481956 13.30788078 -0.04764694 14.33605576 -0.05056 C19.62866219 -0.06550367 24.92124177 -0.0747607 30.21386719 -0.07910156 C34.54077671 -0.08346891 38.86748489 -0.09729936 43.19433594 -0.12011719 C123.03211705 -0.53296796 123.03211705 -0.53296796 147.61669922 19.16113281 C148.3034602 20.48422827 148.9740265 21.81606999 149.61669922 23.16113281 C150.60669922 23.49113281 151.59669922 23.82113281 152.61669922 24.16113281 C161.64798321 35.76055443 165.95598292 48.93308964 168.61669922 63.16113281 C168.76381348 63.94311035 168.91092773 64.72508789 169.0625 65.53076172 C176.74869982 108.67573228 176.55431632 162.08656957 168.61669922 205.16113281 C168.41802246 206.31162109 168.41802246 206.31162109 168.21533203 207.48535156 C165.22354363 224.32049988 158.13069348 240.96196978 144.17919922 251.47363281 C120.1914735 267.87605067 90.05974321 268.31760352 61.99169922 268.32910156 C60.11385067 268.33232662 58.23600236 268.33569155 56.3581543 268.33918762 C52.4383079 268.34513841 48.5184834 268.34703183 44.59863281 268.34643555 C40.62495353 268.34635445 36.65138994 268.35327581 32.67773438 268.36694336 C-51.6904548 268.65288251 -51.6904548 268.65288251 -75.32080078 246.41503906 C-107.19693483 211.58070318 -98.65183014 142.47141709 -96.87548828 98.36328125 C-95.65876741 72.24380618 -93.91818465 39.1488679 -73.38330078 20.16113281 C-53.43186588 3.91093584 -25.06205944 0.03478883 0 0 Z " fill="#1340E4" transform="translate(119.38330078125,17.8388671875)"/>
<path d="M0 0 C0 17.49 0 34.98 0 53 C-4.455 53.495 -4.455 53.495 -9 54 C-18.25673454 57.14183697 -25.61119933 63.00774557 -30.5 71.4375 C-34.63458314 80.45224684 -34.41993237 90.54636617 -31.5 99.9375 C-27.72739383 108.70946889 -21.81682089 114.22881567 -13.19921875 118.125 C-5.10750373 121.34443901 5.78736502 121.3840401 13.9453125 118.10546875 C22.98607327 113.2413332 29.40721321 106.53181448 32.4453125 96.68359375 C33.39043158 92.11108101 33.58012836 87.49999665 33.7890625 82.84375 C34 80 34 80 35 79 C36.59610982 78.90666295 38.19633428 78.88254628 39.79516602 78.88647461 C40.81614883 78.88655014 41.83713165 78.88662567 42.88905334 78.88670349 C43.9994548 78.89186478 45.10985626 78.89702606 46.25390625 78.90234375 C47.94978127 78.90446617 47.94978127 78.90446617 49.67991638 78.90663147 C53.30747065 78.91224981 56.93496424 78.92480542 60.5625 78.9375 C63.01497307 78.94251264 65.4674471 78.94707595 67.91992188 78.95117188 C73.94663545 78.9622252 79.97331339 78.97898116 86 79 C86.06075104 82.46867188 86.09683174 85.9372038 86.12890625 89.40625 C86.14618774 90.37594727 86.16346924 91.34564453 86.18127441 92.34472656 C86.32313552 112.87589691 77.00431729 130.61580765 64 146 C63.43796875 146.66515625 62.8759375 147.3303125 62.296875 148.015625 C47.01061652 164.53713669 25.10559079 172.80699986 3 174 C1.68902344 174.09667969 1.68902344 174.09667969 0.3515625 174.1953125 C-20.26062033 175.04238851 -42.15978891 166.45928228 -57.25 152.625 C-59.19864408 150.77853787 -61.09974675 148.89755402 -63 147 C-64.11375 145.90365234 -64.11375 145.90365234 -65.25 144.78515625 C-73.78451833 135.83391339 -79.31967421 124.71217383 -83 113 C-83.26586914 112.19933105 -83.53173828 111.39866211 -83.80566406 110.57373047 C-86.14453516 102.94652693 -86.50421574 95.75740607 -86.4375 87.8125 C-86.42847656 86.52964111 -86.41945313 85.24678223 -86.41015625 83.92504883 C-85.98220827 60.46369215 -76.76703292 41.45968079 -60.875 24.375 C-44.40069107 8.53431834 -22.74039432 0 0 0 Z " fill="#B5C5DE" transform="translate(157,65)"/>
<path d="M0 0 C1.28014823 4.44230543 0.4927989 7.91929352 -0.5625 12.375 C-1.11015486 15.17310864 -1.11015486 15.17310864 -0.9375 18.75 C-0.89024229 21.7522523 -1.2271887 24.30697924 -1.96536255 27.21522522 C-3.01796295 31.76317014 -3.42918697 36.15053072 -3.61669922 40.80639648 C-3.65429792 41.62306258 -3.69189663 42.43972868 -3.73063469 43.28114223 C-4.12236412 52.55146991 -4.1449922 61.82065408 -4.1328125 71.09765625 C-4.13348884 72.95226555 -4.13446158 74.80687476 -4.13571167 76.66148376 C-4.13716985 80.50764834 -4.13509332 84.35378938 -4.13037109 88.19995117 C-4.12463843 93.1050682 -4.127987 98.01013091 -4.13394356 102.91524601 C-4.13756946 106.72869776 -4.13640189 110.54213676 -4.13381577 114.35558891 C-4.13315399 116.16432133 -4.13394838 117.97305495 -4.13629532 119.78178596 C-4.19581376 131.97815597 -4.19581376 131.97815597 -3.22361755 144.12532043 C-2.88539435 146.96078712 -2.90433877 149.77313408 -2.9375 152.625 C-2.95103516 154.16027344 -2.95103516 154.16027344 -2.96484375 155.7265625 C-2.98224609 156.85191406 -2.98224609 156.85191406 -3 158 C-6.75077399 154.7358333 -6.74513643 151.23581734 -7.125 146.5 C-7.20282715 145.61763672 -7.2806543 144.73527344 -7.36083984 143.82617188 C-11.12130667 98.19602093 -14.57953894 43.94541878 0 0 Z " fill="#134BF0" transform="translate(31,62)"/>
<path d="M0 0 C0.33 0 0.66 0 1 0 C1 12.87 1 25.74 1 39 C1.99 38.505 1.99 38.505 3 38 C4.60446061 37.93826532 6.21165705 37.94197214 7.81689453 37.97827148 C8.81778107 37.99836777 9.8186676 38.01846405 10.84988403 38.03916931 C11.93325043 38.06620438 13.01661682 38.09323944 14.1328125 38.12109375 C15.23978485 38.14470474 16.3467572 38.16831573 17.48727417 38.19264221 C21.03330939 38.26939832 24.57913276 38.35337134 28.125 38.4375 C30.52472911 38.49070871 32.92446866 38.54344918 35.32421875 38.59570312 C41.21627777 38.7250296 47.10817863 38.8602864 53 39 C52.6875 40.9375 52.6875 40.9375 52 43 C49.11788698 43.96070434 47.30149956 44.10581883 44.3125 44.0625 C43.10013672 44.04896484 43.10013672 44.04896484 41.86328125 44.03515625 C41.24839844 44.02355469 40.63351563 44.01195312 40 44 C39.67 43.01 39.34 42.02 39 41 C38.09121094 41.16371094 37.18242187 41.32742187 36.24609375 41.49609375 C30.87119944 42.26393579 25.47978455 42.1062149 20.0625 42.0625 C18.46438477 42.05573242 18.46438477 42.05573242 16.83398438 42.04882812 C14.22259709 42.03711787 11.61132876 42.02071724 9 42 C9 42.66 9 43.32 9 44 C3.375 44.25 3.375 44.25 0 42 C-0.36076355 40.16500854 -0.36076355 40.16500854 -0.34057617 37.91748047 C-0.34034958 37.07675995 -0.34012299 36.23603943 -0.33988953 35.36984253 C-0.32440567 34.46146637 -0.30892181 33.55309021 -0.29296875 32.6171875 C-0.28872391 31.68778351 -0.28447906 30.75837952 -0.28010559 29.80081177 C-0.26328012 26.82524944 -0.22562103 23.85035844 -0.1875 20.875 C-0.17245816 18.86068685 -0.15876888 16.84636311 -0.14648438 14.83203125 C-0.11336394 9.88776121 -0.06155529 4.94399451 0 0 Z " fill="#0E35D6" transform="translate(189,73)"/>
<path d="M0 0 C0.88602402 0.00222061 1.77204803 0.00444122 2.68492126 0.00672913 C3.68588333 0.00680466 4.6868454 0.00688019 5.71813965 0.00695801 C6.80666733 0.01211929 7.89519501 0.01728058 9.01670837 0.02259827 C10.67928932 0.02472069 10.67928932 0.02472069 12.37545776 0.02688599 C15.93168281 0.03250418 19.48784596 0.04505977 23.04405212 0.05775452 C25.44834809 0.06276717 27.85264504 0.06733048 30.25694275 0.07142639 C36.16516716 0.08247952 42.07335522 0.09923535 47.98155212 0.12025452 C47.98155212 1.11025452 47.98155212 2.10025452 47.98155212 3.12025452 C43.09270403 3.26509786 38.2037902 3.4073932 33.31480408 3.54750061 C31.65755801 3.59533202 30.00033061 3.64381553 28.34312439 3.69300842 C18.55220652 3.98315355 8.77772918 4.19915873 -1.01844788 4.12025452 C-1.01844788 3.46025452 -1.01844788 2.80025452 -1.01844788 2.12025452 C-1.67844788 1.79025452 -2.33844788 1.46025452 -3.01844788 1.12025452 C-2.01844788 0.12025452 -2.01844788 0.12025452 0 0 Z " fill="#1E5DFE" transform="translate(194.01844787597656,60.87974548339844)"/>
<path d="M0 0 C0.33 0 0.66 0 1 0 C0.09396578 14.27003892 -3.38665809 27.324428 -10 40 C-11.1328125 38.41796875 -11.1328125 38.41796875 -12 36 C-11.2421875 32.92578125 -11.2421875 32.92578125 -9.875 29.3125 C-7.4799474 22.75545851 -5.76268254 16.20563442 -4.34521484 9.37231445 C-3.95487482 7.56799625 -3.48447673 5.78135112 -3 4 C-2.34 3.67 -1.68 3.34 -1 3 C-0.67 2.01 -0.34 1.02 0 0 Z " fill="#1449EE" transform="translate(288,213)"/>
<path d="M0 0 C0.33 0 0.66 0 1 0 C1 9.24 1 18.48 1 28 C0.34 27.67 -0.32 27.34 -1 27 C-0.67 22.38 -0.34 17.76 0 13 C-7.39194893 12.72280192 -12.21638474 13.2138723 -19 16 C-19.99 15.67 -20.98 15.34 -22 15 C-20.6875 13.5 -20.6875 13.5 -19 12 C-18.01 12 -17.02 12 -16 12 C-16 11.34 -16 10.68 -16 10 C-10.9752761 9.37470103 -6.07471573 8.86987908 -1 9 C-0.67 6.03 -0.34 3.06 0 0 Z " fill="#9CAFCD" transform="translate(156,90)"/>
<path d="M0 0 C0.33 0 0.66 0 1 0 C1 9.24 1 18.48 1 28 C0.34 27.67 -0.32 27.34 -1 27 C-0.67 22.38 -0.34 17.76 0 13 C-1.32 13 -2.64 13 -4 13 C-3.67 12.01 -3.34 11.02 -3 10 C-2.34 9.67 -1.68 9.34 -1 9 C-0.53348793 6.87423218 -0.53348793 6.87423218 -0.375 4.4375 C-0.30023438 3.61121094 -0.22546875 2.78492187 -0.1484375 1.93359375 C-0.09945312 1.29550781 -0.05046875 0.65742187 0 0 Z " fill="#87A4D1" transform="translate(156,90)"/>
<path d="M0 0 C0.33 0 0.66 0 1 0 C0.50130596 5.36891879 -0.02227532 10.69235173 -1 16 C-1.99 16 -2.98 16 -4 16 C-3.88652381 14.02013918 -3.7589065 12.04108402 -3.625 10.0625 C-3.55539062 8.96035156 -3.48578125 7.85820312 -3.4140625 6.72265625 C-3.27742188 5.82417969 -3.14078125 4.92570313 -3 4 C-2.34 3.67 -1.68 3.34 -1 3 C-0.67 2.01 -0.34 1.02 0 0 Z " fill="#1657F5" transform="translate(288,213)"/>
<path d="M0 0 C0.66 0.33 1.32 0.66 2 1 C2 1.99 2 2.98 2 4 C2.66 4 3.32 4 4 4 C3.67 4.598125 3.34 5.19625 3 5.8125 C1.79212012 8.05386471 1.79212012 8.05386471 2 11 C1.37400383 12.68236471 0.71247732 14.3523962 0 16 C-0.66 16 -1.32 16 -2 16 C-1.34 10.72 -0.68 5.44 0 0 Z " fill="#91A7CB" transform="translate(191,148)"/>
<path d="M0 0 C0 3 0 3 -1 6 C-4.5625 7.6875 -4.5625 7.6875 -8 9 C-7.9375 6.75 -7.9375 6.75 -7 4 C-4.7691525 2.32150176 -2.52594094 1.24000737 0 0 Z " fill="#AABCDB" transform="translate(201,222)"/>
</svg>
